<svg xmlns="http://www.w3.org/2000/svg" xmlns:xlink="http://www.w3.org/1999/xlink" width="100" zoomAndPan="magnify" viewBox="0 0 75 74.999997" height="100" preserveAspectRatio="xMidYMid meet" version="1.0"><defs><clipPath id="02bd22aa47"><path d="M 13 20 L 66.75 20 L 66.75 72 L 13 72 Z M 13 20 " clip-rule="nonzero"/></clipPath></defs><path fill="#eb5d3b" d="M 28.613281 17.773438 C 29.605469 17.773438 30.410156 16.96875 30.410156 15.976562 L 30.410156 12.503906 C 30.410156 8.007812 34.078125 4.347656 38.59375 4.347656 C 43.109375 4.347656 46.773438 8.007812 46.773438 12.503906 L 46.773438 15.976562 C 46.773438 16.96875 47.578125 17.773438 48.574219 17.773438 C 49.566406 17.773438 50.371094 16.96875 50.371094 15.976562 L 50.371094 12.992188 C 50.371094 6.714844 45.652344 1.203125 39.367188 0.785156 C 32.539062 0.339844 26.8125 5.769531 26.8125 12.503906 L 26.8125 15.976562 C 26.8125 16.96875 27.617188 17.773438 28.613281 17.773438 Z M 28.613281 17.773438 " fill-opacity="1" fill-rule="nonzero"/><g clip-path="url(#02bd22aa47)"><path fill="#ffb929" d="M 66.417969 64.4375 L 62.464844 26.027344 C 62.148438 22.96875 59.574219 20.65625 56.496094 20.65625 L 20.6875 20.65625 C 17.609375 20.65625 15.035156 22.984375 14.71875 26.027344 L 13.726562 35.589844 C 13.066406 42.007812 19.175781 47.019531 25.347656 45.136719 L 28.699219 44.121094 C 32.507812 42.957031 36.765625 44.878906 38.261719 49.101562 C 38.777344 50.566406 38.707031 52.175781 38.246094 53.667969 L 36.765625 58.492188 C 34.722656 65.152344 39.714844 71.886719 46.6875 71.886719 L 59.6875 71.886719 C 63.703125 71.875 66.835938 68.414062 66.417969 64.4375 Z M 66.417969 64.4375 " fill-opacity="1" fill-rule="nonzero"/></g><path fill="#eb5d3b" d="M 29.964844 48.226562 L 10.59375 54.125 C 7.773438 54.988281 7.570312 58.894531 10.289062 60.042969 L 14.90625 61.980469 C 17.351562 63.015625 19.308594 64.953125 20.34375 67.410156 L 22.285156 72.015625 C 23.433594 74.730469 27.347656 74.53125 28.207031 71.714844 L 34.121094 52.375 C 34.910156 49.832031 32.523438 47.449219 29.964844 48.226562 Z M 29.964844 48.226562 " fill-opacity="1" fill-rule="nonzero"/></svg>