<svg xmlns="http://www.w3.org/2000/svg" xmlns:xlink="http://www.w3.org/1999/xlink" width="500" zoomAndPan="magnify" viewBox="0 0 375 374.999991" height="500" preserveAspectRatio="xMidYMid meet" version="1.0"><defs><g/><clipPath id="b7a4c0ee7b"><path d="M 87.894531 105 L 189 105 L 189 191 L 87.894531 191 Z M 87.894531 105 " clip-rule="nonzero"/></clipPath><clipPath id="e88d9b0eb4"><path d="M 234 138 L 287.394531 138 L 287.394531 188 L 234 188 Z M 234 138 " clip-rule="nonzero"/></clipPath></defs><path fill="#104069" d="M 154.714844 141.09375 C 164.132812 150.914062 175.851562 161.382812 189.863281 172.421875 C 224.289062 149.269531 238.648438 129.210938 232.941406 112.289062 C 225.859375 98 214.410156 94.867188 198.558594 102.890625 L 191.664062 97.234375 C 199.207031 90.585938 209.546875 88.027344 219.347656 90.359375 C 229.152344 92.6875 237.195312 99.640625 240.90625 109.003906 C 249.21875 135.019531 225.167969 156.605469 190.324219 182.394531 C 174.394531 171.429688 160.34375 159.546875 148.125 146.824219 L 154.789062 141.054688 Z M 154.714844 141.09375 " fill-opacity="1" fill-rule="evenodd"/><g clip-path="url(#b7a4c0ee7b)"><path fill="#e06ca0" d="M 142.230469 150.570312 C 147.167969 154.160156 144.910156 161.609375 135.492188 172.996094 C 126.492188 183.921875 118.03125 194.429688 104.742188 189.578125 C 102.710938 190.339844 100.453125 189.769531 99.035156 188.164062 C 97.621094 186.558594 97.3125 184.265625 98.308594 182.355469 C 99.304688 180.445312 101.335938 179.339844 103.480469 179.566406 C 105.621094 179.796875 107.382812 181.324219 107.957031 183.386719 C 112.667969 185.605469 118.910156 182.203125 126.683594 173.1875 C 126.222656 167.570312 132.964844 165.355469 137.214844 157.523438 C 136.5625 153.242188 133.308594 149.308594 127.410156 145.679688 C 120.480469 145.335938 117.035156 152.59375 109.949219 151.675781 C 99.34375 156.222656 94.671875 161.417969 95.933594 167.265625 C 97.773438 168.410156 98.730469 170.550781 98.347656 172.652344 C 97.964844 174.792969 96.355469 176.472656 94.25 176.929688 C 92.144531 177.390625 89.960938 176.511719 88.738281 174.753906 C 87.511719 172.957031 87.511719 170.628906 88.699219 168.832031 C 87.472656 158.132812 94.59375 149.921875 110.101562 144.226562 C 124.234375 136.546875 132.390625 135.554688 134.535156 141.285156 L 139.359375 136.929688 L 140.8125 138.609375 L 181.863281 105.410156 L 188.523438 111.21875 L 145.753906 145.105469 L 147.132812 146.597656 L 142.152344 150.53125 Z M 142.230469 150.570312 " fill-opacity="1" fill-rule="evenodd"/></g><path fill="#e06ca0" d="M 148.011719 129.824219 L 140.660156 135.476562 C 125.535156 99.335938 162.179688 78.742188 188.488281 97.003906 L 229.265625 130.511719 L 224.632812 137.769531 L 180.332031 102.085938 C 172.097656 96.128906 160.878906 96.585938 153.179688 103.195312 C 145.484375 109.804688 143.339844 120.808594 148.011719 129.824219 Z M 148.011719 129.824219 " fill-opacity="1" fill-rule="evenodd"/><g clip-path="url(#e88d9b0eb4)"><path fill="#104069" d="M 251.589844 183.769531 C 241.214844 177.695312 237.003906 164.859375 241.789062 153.855469 L 236.773438 149.882812 L 237.578125 148.851562 L 234.285156 146.175781 L 239.414062 138.457031 C 241.902344 140.980469 243.128906 142.277344 243.089844 142.355469 L 244.355469 140.828125 L 248.605469 144.839844 C 257.949219 137.3125 271.464844 137.921875 280.117188 146.289062 C 288.734375 154.65625 289.769531 168.105469 282.492188 177.65625 C 275.21875 187.207031 261.929688 189.84375 251.554688 183.769531 Z M 263.269531 148.582031 C 255.230469 148.582031 248.71875 155.078125 248.71875 163.101562 C 248.71875 171.125 255.230469 177.617188 263.269531 177.617188 C 271.3125 177.617188 277.820312 171.125 277.820312 163.101562 C 277.820312 155.078125 271.3125 148.582031 263.269531 148.582031 Z M 263.269531 148.582031 " fill-opacity="1" fill-rule="evenodd"/></g><path fill="#104069" d="M 251.285156 163.140625 C 251.285156 156.53125 256.644531 151.179688 263.269531 151.179688 C 269.894531 151.179688 275.253906 156.53125 275.253906 163.140625 C 275.253906 169.75 269.894531 175.097656 263.269531 175.097656 C 256.644531 175.097656 251.285156 169.75 251.285156 163.140625 Z M 264.035156 153.550781 C 258.675781 153.550781 254.308594 157.90625 254.308594 163.253906 C 254.308594 168.601562 258.675781 172.957031 264.035156 172.957031 C 269.398438 172.957031 273.761719 168.601562 273.761719 163.253906 C 273.761719 157.90625 269.398438 153.550781 264.035156 153.550781 Z M 264.035156 153.550781 " fill-opacity="1" fill-rule="evenodd"/><path fill="#104069" d="M 264.113281 167.992188 C 266.601562 167.339844 268.476562 165.277344 268.859375 162.757812 C 269.242188 160.234375 268.09375 157.675781 265.875 156.339844 C 268.9375 157.292969 270.929688 160.234375 270.699219 163.40625 C 270.46875 166.617188 268.09375 169.214844 264.917969 169.75 C 261.738281 170.285156 258.636719 168.601562 257.375 165.660156 C 258.941406 167.683594 261.585938 168.601562 264.074219 167.992188 Z M 264.113281 167.992188 " fill-opacity="1" fill-rule="evenodd"/><path fill="#104069" d="M 197.714844 127.953125 L 189.789062 127.953125 L 189.789062 135.859375 L 197.714844 135.859375 Z M 185.460938 127.953125 L 177.535156 127.953125 L 177.535156 135.859375 L 185.460938 135.859375 Z M 177.535156 140.175781 L 177.535156 148.085938 L 185.460938 148.085938 L 185.460938 140.175781 Z M 189.789062 148.085938 L 197.714844 148.085938 L 197.714844 140.175781 L 189.789062 140.175781 Z M 189.789062 148.085938 " fill-opacity="1" fill-rule="evenodd"/><g fill="#e06ca0" fill-opacity="1"><g transform="translate(147.744136, 218.488097)"><g><path d="M 12.625 -19.015625 C 12.625 -19.304688 12.769531 -19.453125 13.0625 -19.453125 L 15.40625 -19.453125 C 15.695312 -19.453125 15.84375 -19.304688 15.84375 -19.015625 L 15.84375 -0.4375 C 15.84375 -0.144531 15.695312 0 15.40625 0 L 13.0625 0 C 12.769531 0 12.625 -0.144531 12.625 -0.4375 L 12.625 -8.25 C 12.625 -8.363281 12.566406 -8.421875 12.453125 -8.421875 L 5.421875 -8.421875 C 5.304688 -8.421875 5.25 -8.363281 5.25 -8.25 L 5.25 -0.4375 C 5.25 -0.144531 5.101562 0 4.8125 0 L 2.46875 0 C 2.175781 0 2.03125 -0.144531 2.03125 -0.4375 L 2.03125 -19.015625 C 2.03125 -19.304688 2.175781 -19.453125 2.46875 -19.453125 L 4.8125 -19.453125 C 5.101562 -19.453125 5.25 -19.304688 5.25 -19.015625 L 5.25 -11.375 C 5.25 -11.257812 5.304688 -11.203125 5.421875 -11.203125 L 12.453125 -11.203125 C 12.566406 -11.203125 12.625 -11.257812 12.625 -11.375 Z M 12.625 -19.015625 "/></g></g></g><g fill="#e06ca0" fill-opacity="1"><g transform="translate(165.443293, 218.488097)"><g><path d="M 8.09375 -2.5 C 8.78125 -2.519531 9.375 -2.660156 9.875 -2.921875 C 10.382812 -3.191406 10.800781 -3.5625 11.125 -4.03125 C 11.207031 -4.175781 11.328125 -4.25 11.484375 -4.25 C 11.578125 -4.25 11.660156 -4.222656 11.734375 -4.171875 L 13.0625 -3.109375 C 13.195312 -2.984375 13.265625 -2.863281 13.265625 -2.75 C 13.265625 -2.675781 13.234375 -2.59375 13.171875 -2.5 C 12.640625 -1.644531 11.910156 -0.976562 10.984375 -0.5 C 10.054688 -0.0195312 8.988281 0.21875 7.78125 0.21875 C 6.320312 0.21875 5.09375 -0.125 4.09375 -0.8125 C 3.101562 -1.507812 2.390625 -2.476562 1.953125 -3.71875 C 1.578125 -4.738281 1.390625 -5.890625 1.390625 -7.171875 C 1.390625 -8.453125 1.492188 -9.4375 1.703125 -10.125 C 2.046875 -11.4375 2.738281 -12.476562 3.78125 -13.25 C 4.820312 -14.03125 6.082031 -14.421875 7.5625 -14.421875 C 11.03125 -14.421875 13.054688 -12.523438 13.640625 -8.734375 C 13.734375 -8.117188 13.800781 -7.359375 13.84375 -6.453125 C 13.84375 -6.148438 13.691406 -6 13.390625 -6 L 4.78125 -6 C 4.664062 -6 4.609375 -5.945312 4.609375 -5.84375 C 4.609375 -5.34375 4.664062 -4.929688 4.78125 -4.609375 C 4.988281 -3.941406 5.378906 -3.421875 5.953125 -3.046875 C 6.523438 -2.679688 7.238281 -2.5 8.09375 -2.5 Z M 7.53125 -11.640625 C 6.832031 -11.640625 6.253906 -11.46875 5.796875 -11.125 C 5.335938 -10.789062 5.023438 -10.316406 4.859375 -9.703125 C 4.734375 -9.328125 4.660156 -8.9375 4.640625 -8.53125 C 4.617188 -8.414062 4.664062 -8.359375 4.78125 -8.359375 L 10.375 -8.359375 C 10.476562 -8.359375 10.53125 -8.414062 10.53125 -8.53125 C 10.457031 -9.09375 10.40625 -9.425781 10.375 -9.53125 C 10.207031 -10.175781 9.875 -10.6875 9.375 -11.0625 C 8.882812 -11.445312 8.269531 -11.640625 7.53125 -11.640625 Z M 7.53125 -11.640625 "/></g></g></g><g fill="#e06ca0" fill-opacity="1"><g transform="translate(180.502858, 218.488097)"><g><path d="M 7.140625 -14.421875 C 8.304688 -14.421875 9.335938 -14.21875 10.234375 -13.8125 C 11.140625 -13.40625 11.832031 -12.84375 12.3125 -12.125 C 12.789062 -11.414062 13.03125 -10.609375 13.03125 -9.703125 L 13.03125 -0.4375 C 13.03125 -0.144531 12.882812 0 12.59375 0 L 10.25 0 C 9.957031 0 9.8125 -0.144531 9.8125 -0.4375 L 9.8125 -1.140625 C 9.8125 -1.210938 9.789062 -1.253906 9.75 -1.265625 C 9.71875 -1.273438 9.675781 -1.257812 9.625 -1.21875 C 8.613281 -0.257812 7.273438 0.21875 5.609375 0.21875 C 4.242188 0.21875 3.117188 -0.128906 2.234375 -0.828125 C 1.359375 -1.535156 0.921875 -2.582031 0.921875 -3.96875 C 0.921875 -5.414062 1.425781 -6.539062 2.4375 -7.34375 C 3.445312 -8.15625 4.867188 -8.5625 6.703125 -8.5625 L 9.640625 -8.5625 C 9.753906 -8.5625 9.8125 -8.617188 9.8125 -8.734375 L 9.8125 -9.375 C 9.8125 -10.09375 9.59375 -10.648438 9.15625 -11.046875 C 8.71875 -11.441406 8.078125 -11.640625 7.234375 -11.640625 C 6.578125 -11.640625 6.035156 -11.523438 5.609375 -11.296875 C 5.179688 -11.066406 4.894531 -10.75 4.75 -10.34375 C 4.675781 -10.082031 4.507812 -9.960938 4.25 -9.984375 L 1.75 -10.28125 C 1.601562 -10.300781 1.492188 -10.34375 1.421875 -10.40625 C 1.347656 -10.46875 1.316406 -10.546875 1.328125 -10.640625 C 1.492188 -11.753906 2.109375 -12.660156 3.171875 -13.359375 C 4.242188 -14.066406 5.566406 -14.421875 7.140625 -14.421875 Z M 6.5 -2.328125 C 7.40625 -2.328125 8.179688 -2.566406 8.828125 -3.046875 C 9.484375 -3.535156 9.8125 -4.148438 9.8125 -4.890625 L 9.8125 -6.171875 C 9.8125 -6.285156 9.753906 -6.34375 9.640625 -6.34375 L 7.34375 -6.34375 C 6.351562 -6.34375 5.570312 -6.15625 5 -5.78125 C 4.425781 -5.40625 4.140625 -4.878906 4.140625 -4.203125 C 4.140625 -3.609375 4.359375 -3.144531 4.796875 -2.8125 C 5.242188 -2.488281 5.8125 -2.328125 6.5 -2.328125 Z M 6.5 -2.328125 "/></g></g></g><g fill="#e06ca0" fill-opacity="1"><g transform="translate(195.006722, 218.488097)"><g><path d="M 2.203125 0 C 1.898438 0 1.75 -0.144531 1.75 -0.4375 L 1.75 -19.015625 C 1.75 -19.304688 1.898438 -19.453125 2.203125 -19.453125 L 4.53125 -19.453125 C 4.820312 -19.453125 4.96875 -19.304688 4.96875 -19.015625 L 4.96875 -0.4375 C 4.96875 -0.144531 4.820312 0 4.53125 0 Z M 2.203125 0 "/></g></g></g><g fill="#e06ca0" fill-opacity="1"><g transform="translate(201.758518, 218.488097)"><g><path d="M 9.25 -12.03125 C 9.25 -11.738281 9.101562 -11.59375 8.8125 -11.59375 L 6.109375 -11.59375 C 6.003906 -11.59375 5.953125 -11.535156 5.953125 -11.421875 L 5.953125 -4.859375 C 5.953125 -4.140625 6.101562 -3.617188 6.40625 -3.296875 C 6.707031 -2.984375 7.191406 -2.828125 7.859375 -2.828125 L 8.59375 -2.828125 C 8.882812 -2.828125 9.03125 -2.679688 9.03125 -2.390625 L 9.03125 -0.53125 C 9.03125 -0.226562 8.882812 -0.0703125 8.59375 -0.0625 L 7.25 -0.03125 C 5.789062 -0.03125 4.695312 -0.285156 3.96875 -0.796875 C 3.25 -1.304688 2.878906 -2.253906 2.859375 -3.640625 L 2.859375 -11.421875 C 2.859375 -11.535156 2.804688 -11.59375 2.703125 -11.59375 L 1.25 -11.59375 C 0.957031 -11.59375 0.8125 -11.738281 0.8125 -12.03125 L 0.8125 -13.765625 C 0.8125 -14.054688 0.957031 -14.203125 1.25 -14.203125 L 2.703125 -14.203125 C 2.804688 -14.203125 2.859375 -14.257812 2.859375 -14.375 L 2.859375 -17.484375 C 2.859375 -17.773438 3.007812 -17.921875 3.3125 -17.921875 L 5.5 -17.921875 C 5.800781 -17.921875 5.953125 -17.773438 5.953125 -17.484375 L 5.953125 -14.375 C 5.953125 -14.257812 6.003906 -14.203125 6.109375 -14.203125 L 8.8125 -14.203125 C 9.101562 -14.203125 9.25 -14.054688 9.25 -13.765625 Z M 9.25 -12.03125 "/></g></g></g><g fill="#e06ca0" fill-opacity="1"><g transform="translate(212.150176, 218.488097)"><g><path d="M 8.53125 -14.421875 C 10.050781 -14.421875 11.257812 -13.976562 12.15625 -13.09375 C 13.0625 -12.207031 13.515625 -10.992188 13.515625 -9.453125 L 13.515625 -0.4375 C 13.515625 -0.144531 13.363281 0 13.0625 0 L 10.734375 0 C 10.429688 0 10.28125 -0.144531 10.28125 -0.4375 L 10.28125 -8.78125 C 10.28125 -9.632812 10.035156 -10.320312 9.546875 -10.84375 C 9.054688 -11.375 8.410156 -11.640625 7.609375 -11.640625 C 6.816406 -11.640625 6.175781 -11.378906 5.6875 -10.859375 C 5.195312 -10.347656 4.953125 -9.664062 4.953125 -8.8125 L 4.953125 -0.4375 C 4.953125 -0.144531 4.800781 0 4.5 0 L 2.171875 0 C 1.867188 0 1.71875 -0.144531 1.71875 -0.4375 L 1.71875 -19.015625 C 1.71875 -19.304688 1.867188 -19.453125 2.171875 -19.453125 L 4.5 -19.453125 C 4.800781 -19.453125 4.953125 -19.304688 4.953125 -19.015625 L 4.953125 -13.015625 C 4.953125 -12.929688 4.96875 -12.878906 5 -12.859375 C 5.039062 -12.847656 5.078125 -12.867188 5.109375 -12.921875 C 5.890625 -13.921875 7.03125 -14.421875 8.53125 -14.421875 Z M 8.53125 -14.421875 "/></g></g></g></svg>